<?xml version="1.0" encoding="UTF-8"?>
<svg height="128px" viewBox="0 0 128 128" width="128px" xmlns="http://www.w3.org/2000/svg" xmlns:xlink="http://www.w3.org/1999/xlink">
    <filter id="a" height="100%" width="100%" x="0%" y="0%">
        <feColorMatrix color-interpolation-filters="sRGB" values="0 0 0 0 1 0 0 0 0 1 0 0 0 0 1 0 0 0 1 0"/>
    </filter>
    <clipPath id="b">
        <rect height="128" width="128"/>
    </clipPath>
    <clipPath id="c">
        <rect height="128" width="128"/>
    </clipPath>
    <mask id="d">
        <g filter="url(#a)">
            <g clip-path="url(#c)" filter="url(#a)">
                <g clip-path="url(#b)">
                    <path d="m 16.4375 28.03125 h 95.121094 c 4.660156 0 8.441406 3.96875 8.441406 8.867188 v 70.265624 c 0 4.898438 -3.78125 8.867188 -8.441406 8.867188 h -95.121094 c -4.660156 0 -8.4375 -3.96875 -8.4375 -8.867188 v -70.265624 c 0 -4.898438 3.777344 -8.867188 8.4375 -8.867188 z m 0 0" fill="#deddda"/>
                    <path d="m 15.78125 101.90625 h 96.4375 v 14.125 h -96.4375 z m 0 0" fill="#c0bfbc"/>
                    <path d="m 15.769531 28.03125 h 96.460938 c 4.289062 0 7.769531 3.65625 7.769531 8.160156 v 64.679688 c 0 4.507812 -3.480469 8.164062 -7.769531 8.164062 h -96.460938 c -4.292969 0 -7.769531 -3.65625 -7.769531 -8.164062 v -64.679688 c 0 -4.503906 3.476562 -8.160156 7.769531 -8.160156 z m 0 0" fill="#f6f5f4"/>
                    <path d="m 7.277042 17.160106 h 0.110012 v -3.687154 h 1.343203 v -0.094042 h -2.796418 v 0.094042 h 1.343203 z m 3.106046 0.047021 c 0.281239 0 0.562478 -0.06299 0.765644 -0.203166 l -0.015969 -0.078072 c -0.234218 0.125093 -0.484405 0.203166 -0.734592 0.203166 c -0.687571 0 -1.124955 -0.500374 -1.124955 -1.2811 c 0 -0.765643 0.375281 -1.234966 0.96881 -1.234966 c 0.562477 0 0.921788 0.437384 0.921788 1.124955 h -1.952701 v 0.094042 h 2.062712 c 0 -0.047021 0 -0.062103 0 -0.109124 c 0 -0.718623 -0.406332 -1.218997 -1.01583 -1.218997 c -0.656519 0 -1.093903 0.546508 -1.093903 1.359172 c 0 0.828634 0.468435 1.34409 1.218996 1.34409 z m 5.394105 -0.047021 h 0.109124 v -1.718483 c 0 -0.593529 -0.327372 -0.937758 -0.874767 -0.937758 c -0.374394 0 -0.749675 0.187197 -1.015831 0.484405 l 0.031939 0.062103 c 0.2493 -0.281239 0.609498 -0.437384 0.968809 -0.437384 c 0.484405 0 0.780726 0.313177 0.780726 0.828634 z m -3.57803 0 h 0.125093 v -2.202888 l -0.031051 -0.422302 h -0.094042 z m 1.781474 0 h 0.125093 v -1.718483 c 0 -0.593529 -0.328259 -0.937758 -0.875654 -0.937758 c -0.374394 0 -0.749675 0.172114 -0.999862 0.453353 l 0.047021 0.062103 c 0.234218 -0.265269 0.593529 -0.406332 0.937758 -0.406332 c 0.484405 0 0.765644 0.313177 0.765644 0.828634 z m 3.999444 0.047021 c 0.687571 0 1.140924 -0.531425 1.140924 -1.359172 c 0 -0.812664 -0.453353 -1.34409 -1.124954 -1.34409 c -0.453353 0 -0.781613 0.234218 -0.96881 0.609498 l 0.031052 0.109124 c 0.156145 -0.374393 0.484405 -0.609498 0.906706 -0.609498 c 0.64055 0 1.046882 0.484405 1.046882 1.250048 c 0 0.765644 -0.406332 1.250049 -1.01583 1.250049 c -0.437384 0 -0.765644 -0.234218 -0.937758 -0.64055 l -0.015082 0.156145 c 0.187196 0.37528 0.499487 0.578446 0.93687 0.578446 z m -0.983891 1.140925 h 0.109124 v -3.406803 l -0.015082 -0.406333 h -0.094042 z m 3.503506 -1.171976 c 0.094042 0 0.188084 -0.031939 0.266156 -0.06299 l -0.015969 -0.078073 c -0.062103 0.031052 -0.156145 0.047021 -0.218248 0.047021 c -0.219136 0 -0.344229 -0.156145 -0.344229 -0.390363 v -3.562948 h -0.109124 v 3.57803 c 0 0.281239 0.156145 0.469323 0.421414 0.469323 z m 2.57462 -0.01597 h 0.094042 v -1.781473 c 0 -0.546508 -0.328259 -0.874768 -0.859685 -0.874768 c -0.281239 0 -0.609499 0.094042 -0.890737 0.234218 l 0.015969 0.078072 c 0.265269 -0.125093 0.562478 -0.203166 0.843716 -0.203166 c 0.499487 0 0.765644 0.266157 0.765644 0.781613 v 1.375142 z m -0.937758 0.047021 c 0.359312 0 0.687571 -0.141062 0.953728 -0.422301 v -0.093155 c -0.313178 0.296321 -0.594416 0.421415 -0.922676 0.421415 c -0.437384 0 -0.733705 -0.234218 -0.733705 -0.609499 c 0 -0.484405 0.499487 -0.687571 1.656381 -0.687571 v -0.093154 c -1.218997 0 -1.781474 0.250187 -1.781474 0.796695 c 0 0.421414 0.328259 0.68757 0.827746 0.68757 z m 2.730766 -0.031051 c 0.125093 0 0.265269 -0.031939 0.390363 -0.078073 l -0.031052 -0.078072 c -0.109124 0.046134 -0.234218 0.062103 -0.32826 0.062103 c -0.297208 0 -0.484404 -0.203166 -0.484404 -0.515456 v -2.765366 h -0.125094 v 2.796417 c 0 0.359311 0.234218 0.578447 0.578447 0.578447 z m -0.921789 -2.547118 h 1.250048 v -0.094042 h -1.250048 z m 3.08919 2.578169 c 0.281238 0 0.563364 -0.06299 0.765643 -0.203166 l -0.015082 -0.078072 c -0.234218 0.125093 -0.484405 0.203166 -0.734592 0.203166 c -0.687571 0 -1.124955 -0.500374 -1.124955 -1.2811 c 0 -0.765643 0.375281 -1.234966 0.96881 -1.234966 c 0.562477 0 0.921788 0.437384 0.921788 1.124955 h -1.952701 v 0.094042 h 2.061826 c 0 -0.047021 0 -0.062103 0 -0.109124 c 0 -0.718623 -0.406333 -1.218997 -1.014944 -1.218997 c -0.656519 0 -1.093903 0.546508 -1.093903 1.359172 c 0 0.828634 0.468436 1.34409 1.21811 1.34409 z m -21.163876 -5.406525" fill="none" stroke="#5e5c64" stroke-linecap="round" stroke-linejoin="round" stroke-width="0.105583" transform="matrix(4.402955 0 0 4.402955 -10.556116 -1.965335)"/>
                    <path d="m 21.484375 73.589844 h 0.484375 v -16.234375 h 5.914062 v -0.414063 h -12.3125 v 0.414063 h 5.914063 z m 13.675781 0.207031 c 1.238282 0 2.476563 -0.277344 3.371094 -0.894531 l -0.070312 -0.34375 c -1.03125 0.550781 -2.132813 0.894531 -3.234376 0.894531 c -3.027343 0 -4.953124 -2.203125 -4.953124 -5.640625 c 0 -3.371094 1.652343 -5.4375 4.265624 -5.4375 c 2.476563 0 4.058594 1.925781 4.058594 4.953125 h -8.597656 v 0.414063 h 9.082031 c 0 -0.207032 0 -0.273438 0 -0.480469 c 0 -3.164063 -1.789062 -5.367188 -4.472656 -5.367188 c -2.890625 0 -4.816406 2.40625 -4.816406 5.984375 c 0 3.648438 2.0625 5.917969 5.367187 5.917969 z m 23.75 -0.207031 h 0.480469 v -7.566406 c 0 -2.613282 -1.441406 -4.128907 -3.851563 -4.128907 c -1.648437 0 -3.300781 0.824219 -4.472656 2.132813 l 0.140625 0.273437 c 1.097657 -1.238281 2.683594 -1.925781 4.265625 -1.925781 c 2.132813 0 3.4375 1.378906 3.4375 3.648438 z m -15.753906 0 h 0.550781 v -9.699219 l -0.136719 -1.859375 h -0.414062 z m 7.84375 0 h 0.550781 v -7.566406 c 0 -2.613282 -1.445312 -4.128907 -3.855469 -4.128907 c -1.648437 0 -3.300781 0.757813 -4.402343 1.996094 l 0.207031 0.273437 c 1.03125 -1.167968 2.613281 -1.789062 4.128906 -1.789062 c 2.132813 0 3.371094 1.378906 3.371094 3.648438 z m 17.609375 0.207031 c 3.027344 0 5.023437 -2.339844 5.023437 -5.984375 c 0 -3.578125 -1.996093 -5.917969 -4.953124 -5.917969 c -1.996094 0 -3.441407 1.03125 -4.265626 2.683594 l 0.136719 0.480469 c 0.6875 -1.648438 2.132813 -2.683594 3.992188 -2.683594 c 2.820312 0 4.609375 2.132812 4.609375 5.503906 s -1.789063 5.503906 -4.472656 5.503906 c -1.925782 0 -3.371094 -1.03125 -4.128907 -2.820312 l -0.066406 0.6875 c 0.824219 1.652344 2.199219 2.546875 4.125 2.546875 z m -4.332031 5.023437 h 0.480468 v -15 l -0.066406 -1.789062 h -0.414062 z m 15.425781 -5.160156 c 0.414063 0 0.828125 -0.140625 1.171875 -0.277344 l -0.070312 -0.34375 c -0.273438 0.136719 -0.6875 0.207032 -0.960938 0.207032 c -0.964844 0 -1.515625 -0.6875 -1.515625 -1.71875 v -15.6875 h -0.480469 v 15.753906 c 0 1.238281 0.6875 2.066406 1.855469 2.066406 z m 11.335937 -0.070312 h 0.414063 v -7.84375 c 0 -2.40625 -1.445313 -3.851563 -3.785156 -3.851563 c -1.238281 0 -2.683594 0.414063 -3.921875 1.03125 l 0.070312 0.34375 c 1.167969 -0.550781 2.476563 -0.894531 3.714844 -0.894531 c 2.199219 0 3.371094 1.171875 3.371094 3.441406 v 6.054688 z m -4.128906 0.207031 c 1.582032 0 3.027344 -0.621094 4.199219 -1.859375 v -0.410156 c -1.378906 1.304687 -2.617187 1.855468 -4.0625 1.855468 c -1.925781 0 -3.230469 -1.03125 -3.230469 -2.683593 c 0 -2.132813 2.199219 -3.027344 7.292969 -3.027344 v -0.410156 c -5.367187 0 -7.84375 1.101562 -7.84375 3.507812 c 0 1.855469 1.445313 3.027344 3.644531 3.027344 z m 12.023438 -0.136719 c 0.550781 0 1.167968 -0.140625 1.71875 -0.34375 l -0.136719 -0.34375 c -0.480469 0.203125 -1.03125 0.273438 -1.445313 0.273438 c -1.308593 0 -2.132812 -0.894532 -2.132812 -2.269532 v -12.175781 h -0.550781 v 12.3125 c 0 1.582031 1.03125 2.546875 2.546875 2.546875 z m -4.058594 -11.214844 h 5.503906 v -0.414062 h -5.503906 z m 13.601562 11.351563 c 1.238282 0 2.480469 -0.277344 3.371094 -0.894531 l -0.066406 -0.34375 c -1.03125 0.550781 -2.132812 0.894531 -3.234375 0.894531 c -3.027344 0 -4.953125 -2.203125 -4.953125 -5.640625 c 0 -3.371094 1.652344 -5.4375 4.265625 -5.4375 c 2.476563 0 4.058594 1.925781 4.058594 4.953125 h -8.597657 v 0.414063 h 9.078126 c 0 -0.207032 0 -0.273438 0 -0.480469 c 0 -3.164063 -1.789063 -5.367188 -4.46875 -5.367188 c -2.890626 0 -4.816407 2.40625 -4.816407 5.984375 c 0 3.648438 2.0625 5.917969 5.363281 5.917969 z m -93.183593 -23.804687" fill="#5e5c64"/>
                </g>
            </g>
        </g>
    </mask>
    <mask id="e">
        <g filter="url(#a)">
            <rect fill-opacity="0.8" height="184.32" width="184.32" x="-28.16" y="-28.16"/>
        </g>
    </mask>
    <linearGradient id="f" gradientTransform="matrix(0 0.37 -0.98462 0 295.38501 -30.360001)" gradientUnits="userSpaceOnUse" x1="300" x2="428" y1="235" y2="235">
        <stop offset="0" stop-color="#f9f06b"/>
        <stop offset="1" stop-color="#f5c211"/>
    </linearGradient>
    <clipPath id="g">
        <rect height="128" width="128"/>
    </clipPath>
    <clipPath id="h">
        <rect height="128" width="128"/>
    </clipPath>
    <path d="m 16.4375 28.03125 h 95.121094 c 4.660156 0 8.441406 3.96875 8.441406 8.867188 v 70.265624 c 0 4.898438 -3.78125 8.867188 -8.441406 8.867188 h -95.121094 c -4.660156 0 -8.4375 -3.96875 -8.4375 -8.867188 v -70.265624 c 0 -4.898438 3.777344 -8.867188 8.4375 -8.867188 z m 0 0" fill="#deddda"/>
    <path d="m 15.78125 101.90625 h 96.4375 v 14.125 h -96.4375 z m 0 0" fill="#c0bfbc"/>
    <path d="m 15.769531 28.03125 h 96.460938 c 4.289062 0 7.769531 3.65625 7.769531 8.160156 v 64.679688 c 0 4.507812 -3.480469 8.164062 -7.769531 8.164062 h -96.460938 c -4.292969 0 -7.769531 -3.65625 -7.769531 -8.164062 v -64.679688 c 0 -4.503906 3.476562 -8.160156 7.769531 -8.160156 z m 0 0" fill="#f6f5f4"/>
    <path d="m 21.48437245911 73.58983951323 h 0.48437788546 v -16.23437314007 h 5.91406236487 v -0.41406269411 h -12.31250261519 v 0.41406269411 h 5.91406236487 z m 13.67578076593 0.20703134706 c 1.23828266124 0 2.47656532249 -0.27734213545 3.37109607802 -0.89453075553 l -0.0703107884 -0.34374750276 c -1.03125131419 0.55077884982 -2.13281341677 0.89453075553 -3.23437551936 0.89453075553 c -3.02734417231 0 -4.95312624202 -2.20312420517 -4.95312624202 -5.6406256505 c 0 -3.37109167507 1.65234535536 -5.43749972453 4.26562683355 -5.43749972453 c 2.47656091954 0 4.05859108354 1.92578206972 4.05859108354 4.95312624203 h -8.59765463146 v 0.41406269411 h 9.08202811396 c 0 -0.20703134706 0 -0.27343671437 0 -0.48046806142 c 0 -3.16406473097 -1.78906151106 -5.36718893614 -4.47265377765 -5.36718893614 c -2.89062361365 0 -4.81640568336 2.40625013114 -4.81640568336 5.98437315326 c 0 3.64843821347 2.06249822542 5.91796778595 5.36718453318 5.91796778595 z m 23.75000158027 -0.20703134706 h 0.48046806142 v -7.56640331726 c 0 -2.61328147819 -1.44140418426 -4.12890627489 -3.85155973649 -4.12890627489 c -1.64843993427 0 -3.30078528962 0.82421996714 -4.4726581806 2.13281341678 l 0.14062597975 0.27343671437 c 1.0976566815 -1.23828266125 2.68359226659 -1.92578206972 4.26562243059 -1.92578206972 c 2.13281341677 0 3.43750144533 1.37890423803 3.43750144533 3.64843821347 z m -15.75390507865 0 h 0.55077884981 v -9.69921673404 l -0.1367161557 -1.85937670241 h -0.41406269411 z m 7.84374985567 0 h 0.55077884981 v -7.56640331726 c 0 -2.61328147819 -1.44530960534 -4.12890627489 -3.85546515757 -4.12890627489 c -1.64843993427 0 -3.30078528962 0.75781019687 -4.40234739221 1.99609285812 l 0.20703134705 0.27343671437 c 1.03125131419 -1.1679674699 2.61328147819 -1.78906151106 4.12890627489 -1.78906151106 c 2.13281341678 0 3.37109607802 1.37890423803 3.37109607802 3.64843821347 z m 17.60937195702 0.20703134706 c 3.02734417231 0 5.02343703042 -2.33984036088 5.02343703042 -5.98437315326 c 0 -3.57812302212 -1.99609285812 -5.91796778595 -4.95312183907 -5.91796778595 c -1.99609285812 0 -3.44140686642 1.03125131419 -4.26562683355 2.68359226659 l 0.13672055866 0.48046806142 c 0.68749940848 -1.64843553131 2.13281341678 -2.68359226659 3.99218571623 -2.68359226659 c 2.82031282525 0 4.60937433631 2.13281341678 4.60937433631 5.50390509184 c 0 3.37109607802 -1.78906151106 5.50390949479 -4.47265377765 5.50390949479 c -1.92578206972 0 -3.37109607802 -1.03125131419 -4.12890627489 -2.82031282525 l -0.06640536731 0.68749940848 c 0.82421556418 1.6523409524 2.19921878409 2.54687170793 4.12499645085 2.54687170793 z m -4.3320277979 5.02344143337 h 0.48046806142 v -15.00000030287 l -0.06640536731 -1.78906591401 h -0.41406269411 z m 15.42577926023 -5.16015758908 c 0.41406269411 0 0.82812538822 -0.14062597974 1.17187289098 -0.27734213545 l -0.07031078839 -0.34375190571 c -0.27343671437 0.13672055866 -0.68749940848 0.20703134705 -0.96093612284 0.20703134705 c -0.96484594688 0 -1.5156247967 -0.68749940847 -1.5156247967 -1.71875072266 v -15.68749971134 h -0.48046806142 v 15.75390507865 c 0 1.23828266124 0.68749940847 2.06640804946 1.85546687837 2.06640804946 z m 11.3359360021 -0.07031519135 h 0.41406269411 v -7.84374545271 c 0 -2.40625013114 -1.44530960535 -3.85156413944 -3.78515436918 -3.85156413944 c -1.23828266124 0 -2.68359666954 0.41406269411 -3.92187492783 1.03125131419 l 0.07031078839 0.34374750276 c 1.16796746989 -0.55077884982 2.47656532249 -0.89453075553 3.71484358078 -0.89453075553 c 2.19921878408 0 3.37109607802 1.17187729393 3.37109607802 3.44140686642 v 6.05468834461 z m -4.12890627489 0.20703134706 c 1.58203456696 0 3.0273441723 -0.62108963821 4.19922146624 -1.85937229946 v -0.41015727302 c -1.37890864099 1.30468802855 -2.61718689928 1.85547128132 -4.06250090758 1.85547128132 c -1.92578206972 0 -3.23047009827 -1.03125131419 -3.23047009827 -2.68359666954 c 0 -2.13281341677 2.19921878409 -3.02734417231 7.29297100585 -3.02734417231 v -0.41015287007 c -5.36718893613 0 -7.84374985567 1.10156210258 -7.84374985567 3.50781223372 c 0 1.85546687837 1.44530960535 3.02733976935 3.64452838943 3.02733976935 z m 12.02343981353 -0.13671615571 c 0.55077884982 0 1.1679674699 -0.14062597974 1.71875072267 -0.34375190572 l -0.13672055866 -0.34374750276 c -0.48046806142 0.20312592597 -1.03125131419 0.27343671437 -1.4453140083 0.27343671437 c -1.30859344964 0 -2.13280901382 -0.89453075553 -2.13280901382 -2.26952957248 v -12.17578205653 h -0.55078325277 v 12.31249821224 c 0 1.582030164 1.03125131419 2.54687611088 2.54687611088 2.54687611088 z m -4.05859548649 -11.21484593369 h 5.50390509184 v -0.41406269411 h -5.50390509184 z m 13.60156455645 11.3515620894 c 1.23827825829 0 2.48046634062 -0.27734213545 3.37109167506 -0.89453075553 l -0.06640536731 -0.34374750276 c -1.03125131419 0.55077884982 -2.13281341677 0.89453075553 -3.23437551936 0.89453075553 c -3.0273441723 0 -4.95312624203 -2.20312420517 -4.95312624203 -5.6406256505 c 0 -3.37109167507 1.65234535536 -5.43749972453 4.26562683355 -5.43749972453 c 2.47656091953 0 4.05859108354 1.92578206972 4.05859108354 4.95312624203 h -8.59765463146 v 0.41406269411 h 9.07812709583 c 0 -0.20703134706 0 -0.27343671437 0 -0.48046806142 c 0 -3.16406473097 -1.78906591401 -5.36718893614 -4.46875275952 -5.36718893614 c -2.89062361365 0 -4.81640568337 2.40625013114 -4.81640568337 5.98437315326 c 0 3.64843821347 2.06250262838 5.91796778595 5.36328351505 5.91796778595 z m -93.18359365358 -23.80468628138" fill="none" stroke="#5e5c64" stroke-linecap="round" stroke-linejoin="round" stroke-width="0.46487719777"/>
    <path d="m 21.484375 73.589844 h 0.484375 v -16.234375 h 5.914062 v -0.414063 h -12.3125 v 0.414063 h 5.914063 z m 13.675781 0.207031 c 1.238282 0 2.476563 -0.277344 3.371094 -0.894531 l -0.070312 -0.34375 c -1.03125 0.550781 -2.132813 0.894531 -3.234376 0.894531 c -3.027343 0 -4.953124 -2.203125 -4.953124 -5.640625 c 0 -3.371094 1.652343 -5.4375 4.265624 -5.4375 c 2.476563 0 4.058594 1.925781 4.058594 4.953125 h -8.597656 v 0.414063 h 9.082031 c 0 -0.207032 0 -0.273438 0 -0.480469 c 0 -3.164063 -1.789062 -5.367188 -4.472656 -5.367188 c -2.890625 0 -4.816406 2.40625 -4.816406 5.984375 c 0 3.648438 2.0625 5.917969 5.367187 5.917969 z m 23.75 -0.207031 h 0.480469 v -7.566406 c 0 -2.613282 -1.441406 -4.128907 -3.851563 -4.128907 c -1.648437 0 -3.300781 0.824219 -4.472656 2.132813 l 0.140625 0.273437 c 1.097657 -1.238281 2.683594 -1.925781 4.265625 -1.925781 c 2.132813 0 3.4375 1.378906 3.4375 3.648438 z m -15.753906 0 h 0.550781 v -9.699219 l -0.136719 -1.859375 h -0.414062 z m 7.84375 0 h 0.550781 v -7.566406 c 0 -2.613282 -1.445312 -4.128907 -3.855469 -4.128907 c -1.648437 0 -3.300781 0.757813 -4.402343 1.996094 l 0.207031 0.273437 c 1.03125 -1.167968 2.613281 -1.789062 4.128906 -1.789062 c 2.132813 0 3.371094 1.378906 3.371094 3.648438 z m 17.609375 0.207031 c 3.027344 0 5.023437 -2.339844 5.023437 -5.984375 c 0 -3.578125 -1.996093 -5.917969 -4.953124 -5.917969 c -1.996094 0 -3.441407 1.03125 -4.265626 2.683594 l 0.136719 0.480469 c 0.6875 -1.648438 2.132813 -2.683594 3.992188 -2.683594 c 2.820312 0 4.609375 2.132812 4.609375 5.503906 s -1.789063 5.503906 -4.472656 5.503906 c -1.925782 0 -3.371094 -1.03125 -4.128907 -2.820312 l -0.066406 0.6875 c 0.824219 1.652344 2.199219 2.546875 4.125 2.546875 z m -4.332031 5.023437 h 0.480468 v -15 l -0.066406 -1.789062 h -0.414062 z m 15.425781 -5.160156 c 0.414063 0 0.828125 -0.140625 1.171875 -0.277344 l -0.070312 -0.34375 c -0.273438 0.136719 -0.6875 0.207032 -0.960938 0.207032 c -0.964844 0 -1.515625 -0.6875 -1.515625 -1.71875 v -15.6875 h -0.480469 v 15.753906 c 0 1.238281 0.6875 2.066406 1.855469 2.066406 z m 11.335937 -0.070312 h 0.414063 v -7.84375 c 0 -2.40625 -1.445313 -3.851563 -3.785156 -3.851563 c -1.238281 0 -2.683594 0.414063 -3.921875 1.03125 l 0.070312 0.34375 c 1.167969 -0.550781 2.476563 -0.894531 3.714844 -0.894531 c 2.199219 0 3.371094 1.171875 3.371094 3.441406 v 6.054688 z m -4.128906 0.207031 c 1.582032 0 3.027344 -0.621094 4.199219 -1.859375 v -0.410156 c -1.378906 1.304687 -2.617187 1.855468 -4.0625 1.855468 c -1.925781 0 -3.230469 -1.03125 -3.230469 -2.683593 c 0 -2.132813 2.199219 -3.027344 7.292969 -3.027344 v -0.410156 c -5.367187 0 -7.84375 1.101562 -7.84375 3.507812 c 0 1.855469 1.445313 3.027344 3.644531 3.027344 z m 12.023438 -0.136719 c 0.550781 0 1.167968 -0.140625 1.71875 -0.34375 l -0.136719 -0.34375 c -0.480469 0.203125 -1.03125 0.273438 -1.445313 0.273438 c -1.308593 0 -2.132812 -0.894532 -2.132812 -2.269532 v -12.175781 h -0.550781 v 12.3125 c 0 1.582031 1.03125 2.546875 2.546875 2.546875 z m -4.058594 -11.214844 h 5.503906 v -0.414062 h -5.503906 z m 13.601562 11.351563 c 1.238282 0 2.480469 -0.277344 3.371094 -0.894531 l -0.066406 -0.34375 c -1.03125 0.550781 -2.132812 0.894531 -3.234375 0.894531 c -3.027344 0 -4.953125 -2.203125 -4.953125 -5.640625 c 0 -3.371094 1.652344 -5.4375 4.265625 -5.4375 c 2.476563 0 4.058594 1.925781 4.058594 4.953125 h -8.597657 v 0.414063 h 9.078126 c 0 -0.207032 0 -0.273438 0 -0.480469 c 0 -3.164063 -1.789063 -5.367188 -4.46875 -5.367188 c -2.890626 0 -4.816407 2.40625 -4.816407 5.984375 c 0 3.648438 2.0625 5.917969 5.363281 5.917969 z m -93.183593 -23.804687" fill="#5e5c64"/>
    <g mask="url(#d)">
        <g clip-path="url(#h)">
            <g mask="url(#e)">
                <g clip-path="url(#g)">
                    <path d="m 128 80.640625 v 47.359375 h -128 v -47.359375 z m 0 0" fill="url(#f)"/>
                    <path d="m 13.308594 80.640625 l 47.355468 47.359375 h 21.214844 l -47.359375 -47.359375 z m 42.421875 0 l 47.363281 47.359375 h 21.214844 l -47.363282 -47.359375 z m 42.429687 0 l 29.839844 29.839844 v -21.210938 l -8.628906 -8.628906 z m -98.160156 7.90625 v 21.214844 l 18.238281 18.238281 h 21.214844 z m 0 0"/>
                </g>
            </g>
        </g>
    </g>
</svg>
